<?xml version="1.0" encoding="UTF-8" standalone="no"?>
<svg
   xmlns:dc="http://purl.org/dc/elements/1.1/"
   xmlns:cc="http://creativecommons.org/ns#"
   xmlns:rdf="http://www.w3.org/1999/02/22-rdf-syntax-ns#"
   xmlns:svg="http://www.w3.org/2000/svg"
   xmlns="http://www.w3.org/2000/svg"
   xmlns:sodipodi="http://sodipodi.sourceforge.net/DTD/sodipodi-0.dtd"
   xmlns:inkscape="http://www.inkscape.org/namespaces/inkscape"
   version="1.1"
   id="Layer_1"
   x="0px"
   y="0px"
   viewBox="0 0 823 823"
   style="enable-background:new 0 0 823 823;"
   xml:space="preserve"
   sodipodi:docname="remote-team.svg"
   inkscape:version="1.0.1 (3bc2e813f5, 2020-09-07)"
   inkscape:export-filename="C:\Users\princejha\Desktop\techy\images\remote-team.png"
   inkscape:export-xdpi="95.919998"
   inkscape:export-ydpi="95.919998"><metadata
   id="metadata183"><rdf:RDF><cc:Work
       rdf:about=""><dc:format>image/svg+xml</dc:format><dc:type
         rdf:resource="http://purl.org/dc/dcmitype/StillImage" /></cc:Work></rdf:RDF></metadata><defs
   id="defs181">
	
	
	
	
	
	
	
	
	
	
	
	
	
	
	
	
	
	
	
	
	
	
	
	
	
	
	
	
	
	
	
	
	
	
	
	
	
	
	
	
	
	
	
	
	
	
	
	
	
	
	
	
	
	
	
	
	
	
	
	
	
	
	
	
	
	
	
	
	
	
	
	
	
</defs><sodipodi:namedview
   pagecolor="#ffffff"
   bordercolor="#666666"
   borderopacity="1"
   objecttolerance="10"
   gridtolerance="10"
   guidetolerance="10"
   inkscape:pageopacity="0"
   inkscape:pageshadow="2"
   inkscape:window-width="1024"
   inkscape:window-height="705"
   id="namedview179"
   showgrid="false"
   inkscape:zoom="0.5976445"
   inkscape:cx="411.5"
   inkscape:cy="411.5"
   inkscape:window-x="-8"
   inkscape:window-y="-8"
   inkscape:window-maximized="1"
   inkscape:current-layer="Layer_1" />
<style
   type="text/css"
   id="style2">
	.st0{fill:#CCE9FF;}
	.st1{fill:#DBA17B;}
	.st2{fill:#FFBE55;}
	.st3{fill:#0E538C;}
	.st4{fill:#0B4870;}
	.st5{fill:#FFE3CA;}
	.st6{fill:#C68C6B;}
	.st7{fill:#FF957E;}
	.st8{fill:#FCD2B1;}
	.st9{fill:#FFD584;}
	.st10{fill:none;stroke:#FFECD3;stroke-width:0.1;stroke-miterlimit:10;}
	.st11{fill:#D3D3D3;}
	.st12{fill:#F2F2F2;}
	.st13{fill:#2A94F4;}
</style>
<path
   class="st0"
   d="m 264.47324,83.207058 c 87.1,-57.4 209.5,-45.7 286.5,39.500002 42.1,46.6 59.2,110.7 102.9,156.3 49.2,51.3 108,101.2 130.3,171.2 23.7,74.4 2.9,159.7 -50.1,216.6 -64.5,69.2 -159.3,48.4 -248.9,47.3 -366.9,-4.6 -639.6,-249.5 -292.6,-551.4 29,-25.4 43.1,-60.6 71.9,-79.500002 z"
   id="path4"
   style="fill:#9051ff;fill-opacity:1" /><path
   class="st1"
   d="m 718.27324,304.10706 c -1.9,0.6 -11.9,8 -11.9,8 l -11.8,7.6 -0.5,-4.3 c 0,0 -4.8,-9.6 -10.7,-9.2 0,0 7.1,8.7 8,14.5 0.9,5.8 1.3,9.8 1.3,9.8 v 0 l -7.8,7.7 13,16.7 30.5,-22.8 c 0,0 -8.2,-28.6 -10.1,-28 z"
   id="path6" /><polygon
   class="st2"
   points="691.1,310.8 722.7,310.8 717.4,353.3 696.2,353.8 "
   id="polygon8"
   transform="translate(1.6732355,-6.692942)" /><polyline
   class="st3"
   points="727.3,311.4 687.3,311.4 687.3,307.2 691.1,307.2 691.1,300.6 723.6,305.4 723.7,307.8 727.3,307.8    727.3,311.9  "
   id="polyline10"
   transform="translate(1.6732355,-6.692942)" /><path
   class="st1"
   d="m 726.27324,332.90706 c 7.4,0.7 -1.9,-19.6 -1.9,-19.6 0,0 -20,-1.4 -20.2,-0.3 -0.2,1.1 -0.1,2.9 1.5,3.3 1.6,0.4 14.1,2.1 14.1,2.1 0,0 -13,0.6 -12.8,2 0.4,2.1 1.9,2.3 5.8,2.9 3.3,0.5 10.5,0.7 10.5,0.7 0,0 -13.7,0.3 -13.4,1.2 0.3,0.9 -0.6,3.7 4.1,3 10.7,-1.4 12.3,4.7 12.3,4.7 z"
   id="path12" /><path
   class="st4"
   d="m 636.27324,414.60706 c 0,0 20.3,143.5 10.9,174 -9.4,30.5 -13.1,58 -13.1,58 l -47.2,-13.8 c 0,0 15.6,-71.8 18,-85.6 2.3,-13.8 -21.8,-125.9 -21.8,-125.9 z"
   id="path14" /><path
   class="st4"
   d="m 613.97324,424.90706 -22.3,230.7 h -45.1 c 0,0 14.6,-244.2 12,-246.3 -2.6,-1.9 55.4,15.6 55.4,15.6 z"
   id="path16" /><path
   class="st4"
   d="m 631.77324,284.30706 c 0,0 4.8,77.4 15.1,74.6 10.4,-2.7 38.2,-22.9 38.2,-22.9 l 16.9,18.6 c 0,0 -51.5,57.3 -72.7,33.9 -21.1,-23.5 2.5,-104.2 2.5,-104.2 z"
   id="path18" /><path
   class="st4"
   d="m 617.87324,694.20706 3.1,-15.6 -32.9,-13.2 -5.2,23.2 1.8,0.3 c 7.4,3.4 43.3,20 48.9,20.5 6.2,0.6 -15.7,-15.2 -15.7,-15.2 z"
   id="path20" /><g
   id="g24"
   transform="translate(1.6732355,-6.692942)">
		<path
   class="st5"
   d="m 538,473.8 3.6,5.2 c 0,0 1.7,3.5 5.9,8.8 1.1,1.4 2.4,2.6 3.9,3.5 1.8,1.1 4.3,2.5 5.9,2.9 2,0.4 2.4,3 0.7,3.8 -1.7,0.7 -7.1,-0.3 -12.3,-4.3 -5.2,-3.9 -2.8,6 -1.9,9.7 0.8,3.6 2.8,15 1.9,16.2 -1.3,1.7 -3.4,0.5 -4.1,-3.1 -0.7,-3.7 -3.7,-14.5 -5.6,-13.9 -1.9,0.5 2.5,19 2.5,19 0,0 1.6,3.8 -0.6,4.5 -3.9,1.2 -7.2,-18.8 -7.4,-20.7 -0.2,-1.3 -2.3,-0.8 -2,0.6 0.3,1.5 4.8,18.3 0.9,19.6 -3.1,1 -2.8,-16.4 -5.7,-19.4 -2.9,-3 1.2,13.2 -1.8,14 -1.1,0.3 -2,0.4 -3,-9.3 -1,-9.9 0.6,-37 0.6,-37 l 18.8,0.2"
   id="path22" />
	</g><path
   class="st1"
   d="m 604.97324,258.30706 c -0.4,-3.1 1.2,-16 1.2,-16 0,0 11.8,-0.9 12.9,-12.5 1.1,-11.7 1.2,-38.7 1.2,-38.7 l -21.1,-11.2 -24.2,17.1 -5.5,12.8 7.2,30.5 v 15.3 z"
   id="path26" /><path
   class="st6"
   d="m 606.17324,242.30706 c 0,0 -7.9,-0.2 -15.3,-5.7 0,0 3.2,8.7 15,8.6 z"
   id="path28" /><path
   class="st3"
   d="m 569.87324,222.60706 c 3.2,7.1 5.1,17.5 5.1,17.5 1.7,3.2 2.3,-7 2.3,-7 0,0 1.5,-9.8 0.1,-13.6 0,0 -6,1.9 -7.3,-8.8 -0.7,-5.3 7.3,-7.8 9.5,-1.4 l 5,0.5 c 0,0 0.4,-20 11.9,-16.3 0,0 8.3,5.1 13.3,2 5,-3.1 4.6,-4.2 4.6,-4.2 0,0 2.4,5.3 8.8,1.8 6.4,-3.5 7.2,-9.6 5,-12.5 -1.3,-1.7 -2.5,-3.6 -4.6,-4 -2.1,-0.4 -4.4,0.5 -5.7,2.1 1.6,-2.3 0.5,-5.7 -1.9,-7.3 -2.3,-1.5 -5.4,-1.4 -8,-0.4 -2.6,1 -4.8,2.8 -6.9,4.6 -1.5,-4.2 -6,-7.2 -10.4,-6.8 -4.5,0.4 -8.4,4 -9.2,8.4 -2.4,-3 -7,-3.7 -10.5,-2 -3.5,1.7 -5.7,5.3 -6.4,9.1 -0.7,3.8 0.1,7.7 1.6,11.3 -2.7,-1.5 -6.4,-0.4 -8.2,2.1 -1.8,2.5 -1.8,6 -0.5,8.8 1.3,2.8 3.8,4.9 6.5,6.3 -2,1.6 -2.7,4.8 -1.4,7.1 1.3,2.3 4.3,3.5 6.7,2.6"
   id="path30" /><path
   class="st2"
   d="m 529.47324,289.00706 c 0,0 8.1,-37.3 47.2,-33.4 35.8,3.6 35.8,3.6 35.8,3.6 0,0 24.6,10.4 21.1,39.7 -3.4,29.3 -5.1,56.1 -4.2,61.2 0.9,5.2 9.5,51.3 6.9,54.5 -25.8,31.4 -91.7,-18.7 -91.7,-18.7 z"
   id="path32" /><path
   class="st3"
   d="m 576.67324,255.60706 -9.1,217.9 -27.1,-14.7 2.8,-193.3 c 0,0 7.3,-12.5 33.4,-9.9 z"
   id="path34" /><path
   class="st3"
   d="m 520.17324,471.00706 9.3,-182.1 c 2.9,-11.2 9.1,-19.8 17.1,-27 v 211.5 z"
   id="path36" /><path
   class="st3"
   d="m 604.97324,258.30706 c 0,0 24.4,12.1 23.3,53 -1.2,40.9 14.7,156.5 14.7,156.5 l 20.4,-4.1 c 0,0 -23.6,-109.6 -24.6,-128.8 -1,-19.6 0.7,-47.3 -12.5,-66.4 -9.5,-13.7 -21.3,-10.2 -21.3,-10.2 z"
   id="path38" /><path
   class="st4"
   d="m 576.67324,255.60706 c 0,0 -8,18 -7.2,24.5 0.8,6.6 3.6,20.4 3.6,20.4 0,0 -5.9,3.6 -5.4,6.7 0.4,3.1 5.1,52.1 5.1,52.1 z"
   id="path40" /><g
   id="g44"
   transform="translate(1.6732355,-6.692942)">
		<path
   class="st4"
   d="m 544.9,480.2 c 2.5,-44 1.9,-129.4 4.4,-173.5"
   id="path42" />
	</g><path
   class="st1"
   d="m 618.07324,677.50706 c -0.4,-0.2 8.3,-33.1 8.3,-33.1 l -28.9,-8.4 -6.1,30.8 z"
   id="path46" /><rect
   x="551.47321"
   y="655.70709"
   class="st1"
   width="32.900002"
   height="25.799999"
   id="rect48" /><path
   class="st4"
   d="m 587.57324,695.50706 -3,-15.6 h -35.5 l 3.7,23 1.9,0.1 c 8.1,0.4 47.6,2.5 53,0.9 6.2,-1.9 -20.1,-8.4 -20.1,-8.4 z"
   id="path50" /><g
   id="g54"
   transform="translate(1.6732355,-6.692942)">
		<path
   class="st3"
   d="m 307.9,196 c 2.8,9.4 5.6,18.8 8.4,28.2 0.4,1.3 0.8,2.6 0.7,3.9 -0.1,4 -3.8,7.1 -7.7,7.8 -3.9,0.7 -7.9,-0.3 -11.7,-1.4 -1,4 -5.8,5.7 -9.9,6.5 -18.2,3.4 -37.5,1 -54.3,-6.8 7.2,-10.4 13.1,-21.6 17.5,-33.5 14.3,0.6 28.6,1.3 42.9,1.9 2.5,0.1 5.1,0.2 7.5,-0.6 2.4,-0.9 4.5,-2.9 4.7,-5.4"
   id="path52" />
	</g><path
   class="st7"
   d="m 143.57324,313.00706 -4.2,-4.9 c 0,0 -3,-2.5 -7.3,-8.1 -1.1,-1.4 -1.9,-3.1 -2.5,-4.8 -0.7,-2.1 -1.5,-4.9 -1.4,-6.6 0.1,-2.1 -2.4,-3.1 -3.6,-1.6 -1.2,1.5 -1.4,7.2 1.2,13.3 2.6,6.1 -6.7,1.3 -10.1,-0.5 -3.4,-1.7 -14.2,-6.5 -15.6,-5.9 -2.000004,0.9 -1.400004,3.2 2.1,4.9 3.5,1.7 13.4,7.3 12.5,9 -1,1.7 -18.200004,-7.2 -18.200004,-7.2 0,0 -3.4,-2.5 -4.6,-0.5 -2.2,3.6 16.900004,11.8 18.700004,12.5 1.3,0.5 0.3,2.5 -1.1,1.8 -1.4,-0.6 -17.000004,-9.3 -19.300004,-5.7 -1.7,2.8 15.600004,6.9 17.800004,10.5 2.2,3.6 -12.800004,-4.4 -14.400004,-1.7 -0.6,1 -0.9,1.9 8.500004,5.2 9.5,3.4 36.9,8.6 36.9,8.6 l 4.4,-18.8"
   id="path56" /><path
   class="st8"
   d="m 220.87324,268.60706 c 0,0 -15.6,45.1 -20.4,45.5 -32.9,3 -68.7,-11.2 -68.7,-11.2 l -9,25.4 c 0,0 93.2,41.7 113.2,1.5 21.3,-42.6 20.2,-49.3 20.2,-49.3 z"
   id="path58" /><path
   class="st4"
   d="m 222.97324,523.60706 c 16.7,76.7 126.5,148 126.5,148 l 18.7,-22.9 c 0,0 -88.3,-78.7 -92,-113.7 -3.8,-35 25.5,-89.9 25.5,-89.9 l -30.4,-12.9 z"
   id="path60" /><path
   class="st5"
   d="m 260.07324,244.30706 c 0.5,-3.2 -0.7,-16.4 -0.7,-16.4 0,0 -12.1,-1.3 -12.8,-13.3 -0.7,-12 0,-39.6 0,-39.6 l 22,-10.8 24.2,18.3 -3.7,59.9 z"
   id="path62" /><path
   class="st3"
   d="m 291.07324,191.90706 c 0,0 -19.8,-1.9 -23.2,-19.8 l -21.4,19.8 c 0,0 -6.5,-13.3 5.4,-25.6 11.9,-12.3 20,-9.8 24.7,-9.8 4.3,0 26.3,4.7 32.8,29.6 0.5,1.8 0.9,6.3 1.2,8.3 z"
   id="path64" /><path
   class="st8"
   d="m 259.47324,228.00706 c 0,0 8.1,0.1 15.9,-5.4 0,0 -3.6,8.8 -15.6,8.3 z"
   id="path66" /><path
   class="st2"
   d="m 234.57324,379.40706 c 0,4.3 1.5,10.2 1.5,10.2 l 85,24.5 c 0,0 6.1,-38.4 -9.4,-59.8 -7.1,-9.8 -5.5,-23.6 -2.6,-35.4 l 10,-40.3 -13.4,-37.9 -53.5,3.6 c 0,0 -31,-3.1 -41.8,37.9 l 19.9,29.9 0.2,11.3 z"
   id="path68" /><path
   class="st3"
   d="m 317.47324,364.40706 c 0.9,0 16.3,34.5 2.4,55 -1.3,1.9 -4.5,6.6 -8.8,13.3 -20.6,31.6 -67.6,105.9 -69.2,116.8 -1.9,13.2 -39.9,151.7 -39.9,151.7 l -28.3,-4.5 23.1,-157.1 37.8,-160.2 z"
   id="path70" /><path
   class="st3"
   d="m 268.37324,170.70706 c 0,0 -4.4,8.5 -2.5,14.9 l -19.2,5 c 0,-0.1 -4.4,-24.4 21.7,-19.9 z"
   id="path72" /><path
   class="st3"
   d="m 309.57324,192.60706 c 0,0 2.2,27.6 -19.1,32.5 l 1.4,-33.3 z"
   id="path74" /><polygon
   class="st2"
   points="56.9,285.2 137.2,279.8 172,342.2 220.4,323.4 220.7,327.9 173,348 94.9,349.7 "
   id="polygon76"
   transform="translate(1.6732355,-6.692942)" /><path
   class="st9"
   d="M 305.67324,240.70706"
   id="path78" /><polygon
   class="st2"
   points="231.5,299.5 212.1,280.5 198.7,313.2 228.7,328.1 "
   id="polygon80"
   transform="translate(1.6732355,-6.692942)" /><polygon
   class="st5"
   points="275,247 269.9,245 259,249.7 261.2,271.7 "
   id="polygon82"
   transform="translate(1.6732355,-6.692942)" /><g
   id="g86"
   transform="translate(1.6732355,-6.692942)">
		<path
   class="st10"
   d="M 223.6,315.6"
   id="path84" />
	</g><g
   id="g92"
   transform="translate(1.6732355,-6.692942)">
		<path
   class="st3"
   d="m 169.4,703.4 c 0,0 -24.9,6.6 -18.7,8.5 6.2,1.9 49.3,-2.8 49.3,-2.8 l 1.4,-4.9 z"
   id="path88" />
		<polygon
   class="st3"
   points="169.4,703.4 200,709.1 208.8,685.4 170.6,685.4 "
   id="polygon90" />
	</g><g
   id="g98"
   transform="translate(1.6732355,-6.692942)">
		<path
   class="st4"
   d="m 348.1,679.9 c 0,0 -6.3,25 -1.6,20.5 4.6,-4.5 21.6,-44.4 21.6,-44.4 l -3.6,-3.6 z"
   id="path94" />
		<polygon
   class="st4"
   points="348.1,679.9 368,656 351.5,636.8 333,670.1 "
   id="polygon96" />
	</g><path
   class="st5"
   d="m 294.17324,207.00706 c -0.1,-2 -0.1,-4.1 0.6,-5.9 0.7,-1.9 2.3,-3.5 4.3,-3.7 2.3,-0.2 4.5,1.7 4.9,3.9 0.4,2.3 -1,4.6 -3,5.8 -2,1.1 -4.5,1.1 -6.7,0.2"
   id="path100" /><path
   class="st3"
   d="m 280.57324,381.00706 c 0,0 -1.1,-110.7 2.8,-119.1 0,0 4.1,-20.8 20,-21.2 l -7.1,0.6 c 0,0 -14.4,-1 -18.6,27.3 -4.1,28.3 -3.9,113.3 -3.9,113.3 z"
   id="path102" /><path
   class="st3"
   d="m 249.77324,384.90706 c 0,0 -4.3,-127.2 -0.9,-140.6 h -4.3 c 0,0 -3.8,10.9 -3.1,41.4 0.5,18.3 0,99.2 0,99.2 z"
   id="path104" /><path
   class="st5"
   d="m 199.07324,328.50706 c 0,0 -20.8,13.2 -25.4,13.1 -4.5,-0.1 -17.6,-0.4 -16.2,1.4 1.4,1.8 16.2,4.3 16.2,4.3 z"
   id="path106" /><path
   class="st5"
   d="m 200.57324,356.30706 c 0,0 98.5,26.5 112,-16.3 14.3,-45.4 14.5,-33.6 14.5,-33.6 l -30.9,-29.8 c 0,0 -16.6,52.4 -21.3,53.6 -25.9,6.6 -55.3,2.4 -65.7,0.5 -1.2,-1 -2.5,-2.1 -4.1,-3.6 -1.3,-1.2 -2.4,-2.7 -3.2,-4.3 -1,-2 -2.2,-4.6 -2.4,-6.3 -0.3,-2.1 -2.9,-2.7 -3.8,-1.1 -0.9,1.6 -0.3,7.3 3.3,12.9 0,0 -23.5,15.1 -25.4,18.7 z"
   id="path108" /><path
   class="st2"
   d="m 305.67324,240.70706 c 0,0 22.5,4.3 23.4,39.7 0.9,35.4 -13.4,62.5 -13.4,62.5 l -38.2,-19.9 28.2,-82.3"
   id="path110" /><path
   class="st11"
   d="m 501.87324,590.10706 h -103.2 c -4.8,0 -8.7,-3.9 -8.7,-8.7 v 0 c 0,-4.8 3.9,-8.7 8.7,-8.7 h 103.1 c 4.8,0 8.7,3.9 8.7,8.7 v 0 c 0.1,4.8 -3.8,8.7 -8.6,8.7 z"
   id="path112" /><g
   id="g122"
   transform="translate(1.6732355,-6.692942)">
		
			<rect
   x="467.20001"
   y="658"
   transform="rotate(-90,471.5777,702.3495)"
   class="st4"
   width="8.8000002"
   height="88.800003"
   id="rect114" />
		<path
   class="st4"
   d="m 435.4,705 c 0.8,4.6 -2.3,8.9 -6.9,9.6 -4.6,0.8 -8.9,-2.3 -9.6,-6.9 -0.8,-4.6 2.3,-8.9 6.9,-9.6 4.6,-0.8 8.9,2.3 9.6,6.9 z"
   id="path116" />
		<rect
   x="466.79999"
   y="591.09998"
   class="st4"
   width="8.8000002"
   height="110.4"
   id="rect118" />
		<path
   class="st4"
   d="m 524.2,705 c 0.8,4.6 -2.3,8.9 -6.9,9.6 -4.6,0.8 -8.9,-2.3 -9.6,-6.9 -0.8,-4.6 2.3,-8.9 6.9,-9.6 4.6,-0.8 8.9,2.3 9.6,6.9 z"
   id="path120" />
	</g><path
   class="st11"
   d="m 528.87324,590.10706 h -97.4 c -6.6,0 -11.4,-6.5 -9.5,-13 l 46.5,-160.4 c 1.2,-4.3 5.1,-7.3 9.5,-7.3 h 97.4 c 6.6,0 11.4,6.5 9.5,13 l -46.5,160.4 c -1.2,4.4 -5.1,7.3 -9.5,7.3 z"
   id="path124" /><path
   class="st12"
   d="m 515.47324,590.10706 h -84.9 c -6.6,0 -11.4,-6.5 -9.5,-13 l 46.5,-160.4 c 1.2,-4.3 5.1,-7.3 9.5,-7.3 h 84.9 c 6.6,0 11.4,6.5 9.5,13 l -46.5,160.4 c -1.2,4.4 -5.1,7.3 -9.5,7.3 z"
   id="path126" /><path
   class="st11"
   d="m 528.87324,590.10706 h -103.2 c -4.8,0 -8.7,-3.9 -8.7,-8.7 v 0 c 0,-4.8 3.9,-8.7 8.7,-8.7 h 103.1 c 4.8,0 8.7,3.9 8.7,8.7 v 0 c 0.1,4.8 -3.8,8.7 -8.6,8.7 z"
   id="path128" /><polygon
   class="st8"
   points="455.3,528 464.1,462.9 441.9,460.6 419,521.5 424.4,533.4 "
   id="polygon130"
   transform="translate(1.6732355,-6.692942)" /><path
   class="st13"
   d="m 457.47324,424.30706 c 0,0 -18.1,9.5 -22.1,40.7 l 23.9,13.1 z"
   id="path132" /><path
   class="st13"
   d="m 486.67324,412.40706 -28.5,12 -22.5,100.1 75.2,29.6 40.1,-114.2 c 0,0 -6.5,-23.8 -44.1,-29.9 z"
   id="path134" /><path
   class="st5"
   d="m 562.67324,529.90706 c 0,-1.3 -0.8,-9.2 -1.2,-10.5 l -12.4,-79.3 c -2.4,-10.9 -14.6,-16.4 -24.3,-11 -7.2,4 -10.4,12.5 -7.6,20.2 l 14.7,68.1 z"
   id="path136" /><path
   class="st5"
   d="m 545.77324,513.00706 -83.9,-6.5 -4.2,14.8 80.8,27.3 c 12.4,4.2 25.1,-5.6 24.2,-18.7 v 0 c -0.6,-9 -7.8,-16.2 -16.9,-16.9 z"
   id="path138" /><path
   class="st13"
   d="m 540.67324,426.70706 c 0,0 10.7,4.6 15.3,32.4 l -37.8,11.6 c 0,0 -24.7,-27.7 1.7,-46.2 z"
   id="path140" /><path
   class="st5"
   d="m 435.57324,522.20706 c 3.1,8.2 18.6,8.6 26.9,5.5 8.2,-3.1 16.7,-7.8 13.6,-16.1 -3.1,-8.2 -16.8,-13.1 -25.8,-11.1 -10.9,2.5 -17.8,13.4 -14.7,21.7 z"
   id="path142" /><path
   class="st12"
   d="m 481.27324,533.40706 -59.9,-7.7 0.9,-6.8 59.9,7.7 c 1.9,0.2 3.2,1.9 2.9,3.8 v 0 c -0.3,1.9 -2,3.2 -3.8,3 z"
   id="path144" /><path
   class="st12"
   d="m 429.27324,526.70706 -79.4,-10.2 c -4.6,-0.6 -8.2,-4.1 -8.8,-8.7 l -8.3,-57.6 c -0.7,-5.1 3.6,-9.5 8.7,-8.8 l 72.9,9.4 c 3.1,0.4 5.5,2.8 5.9,5.8 z"
   id="path146" /><path
   class="st4"
   d="m 334.37324,678.80706 -20.6,8.5 -13,1 c -6,0.4 -11,4.8 -12.2,10.6 l -0.6,2.7 70.6,8.8 1.4,-28.4 z"
   id="path148" /><polygon
   class="st5"
   points="332.7,685.5 358.3,688.7 365.2,657.8 339.7,654.3 "
   id="polygon150"
   transform="translate(1.6732355,-6.692942)" /><path
   class="st4"
   d="m 510.87324,554.10706 c 0,0 -2,17.1 -32.7,19.4 h -73.8 l -34.8,97.1 -36.6,-5.9 36.6,-142.6 83.9,9.3 z"
   id="path152" /><path
   class="st3"
   d="m 275.27324,623.00706 -22.1,-3.3 -11.7,-5.9 c -5.4,-2.7 -11.9,-1.5 -16,2.8 l -1.9,2 56,43.8 15.8,-23.6 z"
   id="path154" /><polygon
   class="st5"
   points="273.6,629.7 293.9,645.6 313.1,621.2 292.9,605.1 "
   id="polygon156"
   transform="translate(1.6732355,-6.692942)" /><path
   class="st3"
   d="m 435.67324,524.50706 -56.9,-17 c -2.4,-0.7 -4.7,-1.6 -7.1,-2.4 -4.9,-1.9 -17.3,-4.5 -26.9,10.2 -12.3,18.9 -61.6,89.9 -61.6,89.9 l 30.1,22.2 65.7,-83.7 c 5.5,-7.6 14.3,-12.1 23.7,-12.1 l 50.8,-0.1 z"
   id="path158" /><path
   class="st2"
   d="m 508.87324,381.20706 c 1,-1.9 18.6,-33.3 2.5,-41.2 0,0 -2.1,-16.6 -20.6,-14.8 -18.5,1.8 -13.5,7.2 -25.3,4.5 -11.8,-2.7 -22.9,3.4 -22,13.3 0.9,9.9 8.4,14.1 22,11.7 13.6,-2.4 24.4,-0.6 24.4,-0.6 l 11.4,3.3 z"
   id="path160" /><g
   id="g164"
   transform="translate(1.6732355,-6.692942)">
		<path
   class="st5"
   d="M 509.4,421.9 508,382 l -27.6,9.8 2.2,32 c 0.5,7.4 4.6,13.2 12,12.7 l 2.3,-0.1 c 7.4,-0.7 13,-7.1 12.5,-14.5 z"
   id="path162" />
	</g><path
   class="st8"
   d="m 507.27324,380.80706 c 0,0 5.2,33.3 -23.2,35.2 l -1.3,-15.8 z"
   id="path166" /><path
   class="st5"
   d="m 483.87324,408.60706 h 1 c 14.2,-0.7 25.1,-12.7 24.4,-26.9 l -1.4,-29 c -0.2,-3.7 -3.3,-6.5 -7,-6.3 l -33.8,1.6 c -6.5,0.3 -11.6,5.9 -11.3,12.4 l 1.1,23.7 c 0.8,14.2 12.8,25.1 27,24.5 z"
   id="path168" /><path
   class="st5"
   d="m 502.77324,373.00706 c 0.2,4.8 4.3,8.5 9.1,8.2 4.8,-0.2 8.5,-4.3 8.2,-9.1 -0.2,-4.8 -4.3,-8.5 -9.1,-8.2 -4.7,0.2 -8.4,4.3 -8.2,9.1 z"
   id="path170" /><path
   class="st2"
   d="m 498.67324,349.80706 1.7,32.3 c 0.2,2.9 -1,5.9 -3.5,7.5 -1.5,1.1 -2.7,2.5 -5.4,2.1 -7.7,-1.1 -4.1,-6.8 -19.8,-6 -14.3,0.8 -13.2,8.7 -13.2,8.7 0,0 2.8,15.1 22.4,15.8 19.6,0.7 29.4,-11.7 27.1,-28.2 l -1.9,-34.1 z"
   id="path172" /><path
   class="st2"
   d="m 456.77324,355.30706 c 0,0 9.1,1.4 22.4,-1.8 13.2,-3.3 23.7,7.4 23.7,7.4 0,0 2.8,4.9 3.5,4.8 0.7,-0.1 4.7,-1.7 4.7,-1.7 l -0.2,-14.9 -9.7,-7.6 -26.9,-1.1 -15.9,3.5 z"
   id="path174" />
</svg>
